<svg xmlns="http://www.w3.org/2000/svg" xmlns:xlink="http://www.w3.org/1999/xlink" fill="none" version="1.1" width="24" height="24" viewBox="0 0 24 24"><defs><clipPath id="master_svg0_90_5038"><rect x="0" y="0" width="24" height="24" rx="0"/></clipPath></defs><g clip-path="url(#master_svg0_90_5038)"><g><path d="M9,2.4545500000000002C5.38505,2.4545500000000002,2.4545500000000002,5.38505,2.4545500000000002,9C2.4545500000000002,12.615,5.38505,15.5455,9,15.5455C12.615,15.5455,15.5455,12.615,15.5455,9C15.5455,5.38505,12.615,2.4545500000000002,9,2.4545500000000002C9,2.4545500000000002,9,2.4545500000000002,9,2.4545500000000002ZM1,9C1,4.58172,4.58172,1,9,1C13.4183,1,17,4.58172,17,9C17,13.4183,13.4183,17,9,17C4.58172,17,1,13.4183,1,9C1,9,1,9,1,9ZM9,5.36364C9.40167,5.36364,9.72727,5.68925,9.72727,6.09091C9.72727,6.09091,9.72727,8.27273,9.72727,8.27273C9.72727,8.27273,11.9091,8.27273,11.9091,8.27273C12.3108,8.27273,12.6364,8.59833,12.6364,9C12.6364,9.40167,12.3108,9.72727,11.9091,9.72727C11.9091,9.72727,9.72727,9.72727,9.72727,9.72727C9.72727,9.72727,9.72727,11.9091,9.72727,11.9091C9.72727,12.3108,9.40167,12.6364,9,12.6364C8.59833,12.6364,8.27273,12.3108,8.27273,11.9091C8.27273,11.9091,8.27273,9.72727,8.27273,9.72727C8.27273,9.72727,6.09091,9.72727,6.09091,9.72727C5.68925,9.72727,5.36364,9.40167,5.36364,9C5.36364,8.59833,5.68925,8.27273,6.09091,8.27273C6.09091,8.27273,8.27273,8.27273,8.27273,8.27273C8.27273,8.27273,8.27273,6.09091,8.27273,6.09091C8.27273,5.68925,8.59833,5.36364,9,5.36364C9,5.36364,9,5.36364,9,5.36364Z" fill-rule="evenodd" fill="#852AB3" fill-opacity="1"/><path d="M16.8318,12.3087Q17.5,10.72898,17.5,9Q17.5,7.27101,16.8318,5.69126Q16.1866,4.16578,15.0104,2.9895899999999997Q13.8342,1.813402,12.3087,1.168178Q10.72898,0.5,9,0.49999899999999997Q7.27101,0.49999899999999997,5.69126,1.168177Q4.165789999999999,1.8134000000000001,2.9895899999999997,2.9895899999999997Q1.813401,4.16578,1.168178,5.69126Q0.5,7.27101,0.49999899999999997,9Q0.49999899999999997,10.72898,1.168177,12.3087Q1.8134000000000001,13.8342,2.9895899999999997,15.0104Q4.165789999999999,16.1866,5.69126,16.8318Q7.27102,17.5,9,17.5Q10.72898,17.5,12.3087,16.8318Q13.8342,16.1866,15.0104,15.0104Q16.1866,13.8342,16.8318,12.3087ZM14.3033,3.6967Q16.5,5.8934,16.5,9Q16.5,12.1066,14.3033,14.3033Q12.1066,16.5,9,16.5Q5.8934,16.5,3.6967,14.3033Q1.5,12.1066,1.499999,9Q1.5,5.8934,3.6967,3.6967Q5.8934,1.499999,9,1.499999Q12.1066,1.5,14.3033,3.6967ZM13.9819,13.9819Q16.0455,11.9183,16.0455,9Q16.0455,6.08168,13.9819,4.01811Q11.9183,1.9545460000000001,9,1.954545Q6.08168,1.954545,4.01811,4.01811Q1.954545,6.08168,1.954545,9Q1.954545,11.9183,4.01811,13.9819Q6.08168,16.0455,9,16.0455Q11.9183,16.0455,13.9819,13.9819ZM13.2748,4.72522Q15.0455,6.49589,15.0455,9Q15.0455,11.5041,13.2748,13.2748Q11.5041,15.0455,9,15.0455Q6.49589,15.0455,4.72522,13.2748Q2.9545500000000002,11.5041,2.9545500000000002,9Q2.9545500000000002,6.49589,4.72522,4.72522Q6.49589,2.9545500000000002,9,2.9545500000000002Q11.5041,2.9545399999999997,13.2748,4.72522ZM12.7769,9.86782Q13.1364,9.50836,13.1364,9Q13.1364,8.49164,12.7769,8.13218Q12.4175,7.77273,11.9091,7.77273L10.22727,7.77273L10.22727,6.09091Q10.22727,5.58256,9.86782,5.2231Q9.50836,4.86364,9,4.86364Q8.49164,4.86364,8.13218,5.2231Q7.77273,5.58256,7.77273,6.09091L7.77273,7.77273L6.09091,7.77273Q5.58256,7.77273,5.2231,8.13218Q4.86364,8.49164,4.86364,9Q4.86364,9.50836,5.2231,9.86782Q5.58256,10.22727,6.09091,10.22727L7.77273,10.22727L7.77273,11.9091Q7.77273,12.4175,8.13218,12.7769Q8.49164,13.1364,9,13.1364Q9.50836,13.1364,9.86782,12.7769Q10.22727,12.4175,10.22727,11.9091L10.22727,10.22727L11.9091,10.22727Q12.4175,10.22727,12.7769,9.86782ZM11.9091,8.77273Q12.1364,8.77273,12.1364,9Q12.1364,9.22727,11.9091,9.22727L9.72727,9.22727Q9.67803,9.22727,9.62973,9.23688Q9.58143,9.24649,9.53593,9.26533Q9.49043,9.28418,9.44949,9.31154Q9.40854,9.3389,9.37372,9.37372Q9.3389,9.40854,9.31154,9.44949Q9.28418,9.49043,9.26533,9.53593Q9.24649,9.58143,9.23688,9.62973Q9.22727,9.67803,9.22727,9.72727L9.22727,11.9091Q9.22727,12.1364,9,12.1364Q8.905850000000001,12.1364,8.83929,12.0698Q8.77273,12.0032,8.77273,11.9091L8.77273,9.72727Q8.77273,9.67803,8.76312,9.62973Q8.75351,9.58143,8.734670000000001,9.53593Q8.71582,9.49043,8.68846,9.44949Q8.661100000000001,9.40854,8.626280000000001,9.37372Q8.59146,9.3389,8.55051,9.31154Q8.50957,9.28418,8.46407,9.26533Q8.418569999999999,9.24649,8.37027,9.23688Q8.32197,9.22727,8.27273,9.22727L6.09091,9.22727Q5.86364,9.22727,5.86364,9Q5.86364,8.90586,5.9302,8.83929Q5.99677,8.77273,6.09091,8.77273L8.27273,8.77273Q8.32197,8.77273,8.37027,8.76312Q8.418569999999999,8.75351,8.46407,8.734670000000001Q8.50957,8.71582,8.55051,8.68846Q8.59146,8.661100000000001,8.626280000000001,8.626280000000001Q8.661100000000001,8.59146,8.68846,8.55051Q8.71582,8.50957,8.734670000000001,8.46407Q8.75351,8.418569999999999,8.76312,8.37027Q8.77273,8.32197,8.77273,8.27273L8.77273,6.09091Q8.77273,5.86364,9,5.86364Q9.22727,5.86364,9.22727,6.09091L9.22727,8.27273Q9.22727,8.32197,9.23688,8.37027Q9.24649,8.418569999999999,9.26533,8.46407Q9.28418,8.50957,9.31154,8.55051Q9.3389,8.59146,9.37372,8.626280000000001Q9.40854,8.661100000000001,9.44949,8.68846Q9.49043,8.71582,9.53593,8.734670000000001Q9.58143,8.75351,9.62973,8.76312Q9.67803,8.77273,9.72727,8.77273L11.9091,8.77273Z" fill-rule="evenodd" fill="#852AB3" fill-opacity="1"/></g></g></svg>