<svg xmlns="http://www.w3.org/2000/svg" xmlns:xlink="http://www.w3.org/1999/xlink" fill="none" version="1.1" width="24" height="24" viewBox="0 0 24 24"><defs><clipPath id="master_svg0_90_4785"><rect x="0" y="0" width="24" height="24" rx="0"/></clipPath></defs><g clip-path="url(#master_svg0_90_4785)"><g><path d="M8.5,2.36364C5.11098,2.36364,2.36364,5.11098,2.36364,8.5C2.36364,11.889,5.11098,14.6364,8.5,14.6364C11.889,14.6364,14.6364,11.889,14.6364,8.5C14.6364,5.11098,11.889,2.36364,8.5,2.36364C8.5,2.36364,8.5,2.36364,8.5,2.36364ZM1,8.5C1,4.35787,4.35787,1,8.5,1C12.6421,1,16,4.35787,16,8.5C16,12.6421,12.6421,16,8.5,16C4.35787,16,1,12.6421,1,8.5C1,8.5,1,8.5,1,8.5ZM9.18182,9.18182Q11.2273,9.18182,11.2273,9.18182C11.6038,9.18182,11.9091,8.876570000000001,11.9091,8.5C11.9091,8.123429999999999,11.6038,7.81818,11.2273,7.81818Q11.2273,7.81818,9.18182,7.81818L7.81818,7.81818Q5.77273,7.81818,5.77273,7.81818C5.39617,7.81818,5.09091,8.123429999999999,5.09091,8.5C5.09091,8.876570000000001,5.39617,9.18182,5.77273,9.18182Q5.77273,9.18182,7.81818,9.18182L9.18182,9.18182Z" fill-rule="evenodd" fill="#852AB3" fill-opacity="1"/><path d="M14.1568,14.1568Q16.5,11.8137,16.5,8.5Q16.5,5.1863,14.1568,2.84315Q11.8137,0.5,8.5,0.49999899999999997Q5.18629,0.5,2.84315,2.84315Q0.5,5.18629,0.5,8.5Q0.5000009999999999,11.8137,2.84315,14.1568Q5.18629,16.5,8.5,16.5Q11.8137,16.5,14.1568,14.1568ZM13.4497,3.55025Q15.5,5.60051,15.5,8.5Q15.5,11.3995,13.4497,13.4497Q11.3995,15.5,8.5,15.5Q5.60051,15.5,3.55025,13.4497Q1.5000010000000001,11.3995,1.5,8.5Q1.5,5.60051,3.55025,3.55025Q5.6005,1.5,8.5,1.499999Q11.3995,1.5,13.4497,3.55025ZM3.80738,13.1926Q5.75113,15.1364,8.5,15.1364Q11.2489,15.1364,13.1926,13.1926Q15.1364,11.2489,15.1364,8.5Q15.1364,5.75113,13.1926,3.80738Q11.2489,1.863637,8.5,1.863636Q5.75113,1.863636,3.80738,3.80738Q1.863636,5.75113,1.863636,8.5Q1.863636,11.2489,3.80738,13.1926ZM12.4855,12.4855Q10.83467,14.1364,8.5,14.1364Q6.16534,14.1364,4.51449,12.4855Q2.86364,10.83467,2.86364,8.5Q2.86364,6.16534,4.51449,4.51449Q6.16534,2.86364,8.5,2.86364Q10.83467,2.86364,12.4855,4.51449Q14.1364,6.16534,14.1364,8.5Q14.1364,10.83467,12.4855,12.4855ZM5.77273,9.68182L11.2273,9.68182Q11.7168,9.68182,12.0629,9.33568Q12.4091,8.98953,12.4091,8.5Q12.4091,8.01047,12.0629,7.66432Q11.7168,7.31818,11.2273,7.31818L5.77273,7.31818Q5.2832,7.31818,4.93706,7.66432Q4.59091,8.01047,4.59091,8.5Q4.59091,8.98953,4.93706,9.33568Q5.2832,9.68182,5.77273,9.68182ZM11.2273,8.68182L5.77273,8.68182Q5.59091,8.68182,5.59091,8.5Q5.59091,8.31818,5.77273,8.31818L11.2273,8.31818Q11.4091,8.31818,11.4091,8.5Q11.4091,8.68182,11.2273,8.68182Z" fill-rule="evenodd" fill="#852AB3" fill-opacity="1"/></g></g></svg>